<svg width="22" height="21" viewBox="0 0 22 21" fill="none" xmlns="http://www.w3.org/2000/svg">
<path d="M14.456 18.374C14.4562 17.8549 14.6103 17.3474 14.8989 16.9159C15.1874 16.4844 15.5975 16.1481 16.0771 15.9495C16.5568 15.751 17.0846 15.6992 17.5937 15.8006C18.1029 15.902 18.5705 16.152 18.9375 16.5192C19.3045 16.8864 19.5544 17.3541 19.6556 17.8633C19.7568 18.3724 19.7048 18.9002 19.5061 19.3798C19.3074 19.8594 18.9709 20.2693 18.5393 20.5577C18.1076 20.8461 17.6001 21 17.081 21C16.7362 21 16.3948 20.9321 16.0762 20.8001C15.7577 20.6681 15.4683 20.4747 15.2245 20.2308C14.9807 19.9869 14.7874 19.6974 14.6555 19.3789C14.5237 19.0603 14.4559 18.7188 14.456 18.374ZM1.331 18.374C1.3312 17.8549 1.48532 17.3474 1.77388 16.9159C2.06244 16.4844 2.47248 16.1481 2.95215 15.9495C3.43182 15.751 3.95959 15.6992 4.46872 15.8006C4.97786 15.902 5.4455 16.152 5.81251 16.5192C6.17952 16.8864 6.42943 17.3541 6.53063 17.8633C6.63184 18.3724 6.5798 18.9002 6.38109 19.3798C6.18238 19.8594 5.84593 20.2693 5.41427 20.5577C4.98261 20.8461 4.47513 21 3.956 21C3.6112 21 3.26977 20.9321 2.95123 20.8001C2.63268 20.6681 2.34326 20.4747 2.09949 20.2308C1.85572 19.9869 1.66239 19.6974 1.53053 19.3789C1.39867 19.0603 1.33087 18.7188 1.331 18.374ZM0 14.437V11.812H16.092L17.966 5.25H2.644V2.625H0.019V0H3.956C4.12838 -5.00708e-08 4.29907 0.0339689 4.45831 0.0999656C4.61756 0.165962 4.76223 0.262693 4.88408 0.384629C5.00592 0.506566 5.10254 0.651318 5.16842 0.810612C5.23429 0.969907 5.26813 1.14062 5.268 1.313V2.625H19.707C19.9084 2.6305 20.106 2.68133 20.2851 2.7737C20.4642 2.86607 20.6202 2.99761 20.7414 3.15855C20.8627 3.31949 20.9461 3.50568 20.9855 3.7033C21.0249 3.90091 21.0193 4.10487 20.969 4.3L18.344 13.486C18.2655 13.7604 18.0998 14.0017 17.8719 14.1735C17.644 14.3453 17.3664 14.4381 17.081 14.438L0 14.437ZM1.312 10.5V9.188H6.563V10.5H1.312ZM2.626 7.874V6.562H7.876V7.874H2.626Z" fill="white"/>
</svg>
