<svg width="23" height="38" viewBox="0 0 23 38" fill="none" xmlns="http://www.w3.org/2000/svg">
<path d="M4.25563 7.93703C6.32117 7.93703 7.99563 6.26258 7.99563 4.19703C7.99563 2.13149 6.32117 0.457031 4.25563 0.457031C2.19008 0.457031 0.515625 2.13149 0.515625 4.19703C0.515625 6.26258 2.19008 7.93703 4.25563 7.93703Z" fill="#3EBCF1"/>
<path d="M19.2166 7.93703C21.2821 7.93703 22.9566 6.26258 22.9566 4.19703C22.9566 2.13149 21.2821 0.457031 19.2166 0.457031C17.151 0.457031 15.4766 2.13149 15.4766 4.19703C15.4766 6.26258 17.151 7.93703 19.2166 7.93703Z" fill="#3EBCF1"/>
<path d="M4.25563 22.897C6.32117 22.897 7.99563 21.2226 7.99563 19.157C7.99563 17.0915 6.32117 15.417 4.25563 15.417C2.19008 15.417 0.515625 17.0915 0.515625 19.157C0.515625 21.2226 2.19008 22.897 4.25563 22.897Z" fill="#3EBCF1"/>
<path d="M19.2166 22.897C21.2821 22.897 22.9566 21.2225 22.9566 19.157C22.9566 17.0914 21.2821 15.417 19.2166 15.417C17.151 15.417 15.4766 17.0914 15.4766 19.157C15.4766 21.2225 17.151 22.897 19.2166 22.897Z" fill="#3EBCF1"/>
<path d="M4.25563 37.857C6.32117 37.857 7.99563 36.1826 7.99563 34.117C7.99563 32.0515 6.32117 30.377 4.25563 30.377C2.19008 30.377 0.515625 32.0515 0.515625 34.117C0.515625 36.1826 2.19008 37.857 4.25563 37.857Z" fill="#3EBCF1"/>
<path d="M19.2166 37.857C21.2821 37.857 22.9566 36.1825 22.9566 34.117C22.9566 32.0514 21.2821 30.377 19.2166 30.377C17.151 30.377 15.4766 32.0514 15.4766 34.117C15.4766 36.1825 17.151 37.857 19.2166 37.857Z" fill="#3EBCF1"/>
</svg>
