<svg width="25" height="24" viewBox="0 0 25 24" fill="none" xmlns="http://www.w3.org/2000/svg">
<path d="M19.5 11C19.5 12.5823 19.0308 14.129 18.1518 15.4446C17.2727 16.7602 16.0233 17.7856 14.5615 18.3911C13.0997 18.9966 11.4911 19.155 9.93928 18.8463C8.38743 18.5376 6.96197 17.7757 5.84315 16.6569C4.72433 15.5381 3.9624 14.1126 3.65372 12.5608C3.34504 11.0089 3.50347 9.40038 4.10897 7.93857C4.71447 6.47676 5.73985 5.22733 7.05544 4.34828C8.37103 3.46923 9.91775 3.00004 11.5 3.00004C12.5515 2.99674 13.5933 3.20141 14.5654 3.60228C15.5375 4.00315 16.4207 4.5923 17.1642 5.33582C17.9077 6.07935 18.4969 6.96257 18.8978 7.93467C19.2986 8.90677 19.5033 9.94854 19.5 11Z" stroke="#292929" stroke-width="2" stroke-linecap="round" stroke-linejoin="round"/>
<path d="M21.4993 21.0002L17.1562 16.6572" stroke="#292929" stroke-width="2" stroke-linecap="round" stroke-linejoin="round"/>
</svg>
